<svg width="31" height="33" viewBox="0 0 31 33" fill="none" xmlns="http://www.w3.org/2000/svg">
<path d="M29.7942 25.8212C30.7417 25.1348 30.944 23.8248 30.2466 22.8921C29.5493 21.9594 28.2185 21.7602 27.2709 22.4467L20.899 27.0684H14.4792C14.0108 27.0684 13.6275 26.6911 13.6275 26.23C13.6275 25.7688 14.0108 25.3916 14.4792 25.3916H18.7378C19.68 25.3916 20.4412 24.6422 20.4412 23.7148C20.4412 22.7873 19.68 22.038 18.7378 22.038H10.3111C8.76205 22.038 7.26089 22.5567 6.05252 23.5052L3.66239 25.3916H1.70344C0.761223 25.3916 0 26.1409 0 27.0684V30.422C0 31.3495 0.761223 32.0988 1.70344 32.0988H18.7644C20.3081 32.0988 21.8146 31.6115 23.0603 30.7102L29.7995 25.8212H29.7942Z" fill="#66707F"/>
<path d="M26.3089 12.0042C25.9705 11.565 25.5586 11.1844 25.1761 10.8037C24.1904 9.92537 23.0723 9.29592 22.1307 8.37363C19.9386 6.23627 19.4531 2.7083 20.8507 0C19.4531 0.336708 18.232 1.09793 17.1874 1.93238C13.377 4.97739 11.8764 10.3498 13.6712 14.9613C13.7301 15.1077 13.7889 15.2541 13.7889 15.4444C13.7889 15.7664 13.5682 16.0592 13.274 16.1763C12.9356 16.3227 12.5825 16.2349 12.303 16.0007C12.2195 15.9311 12.1497 15.8467 12.097 15.7518C10.4346 13.6583 10.1697 10.6574 11.2879 8.25652C8.83095 10.2475 7.49215 13.6144 7.68341 16.7912C7.77168 17.5231 7.85995 18.2551 8.11006 18.9871C8.31603 19.8654 8.71325 20.7438 9.15462 21.5196C10.334 21.5196 10.2689 21.5196 11.2585 21.5196C13.6246 21.5239 15.5703 21.5387 17.4866 21.5589C21.0798 21.3193 21.7984 24.9125 23.2357 24.4334C26.8288 23.2357 29.0159 17.5671 27.633 14.2293L27.4417 13.8487C27.1328 13.1753 26.3089 12.0042 26.3089 12.0042Z" fill="#00ADB5"/>
</svg>
